<svg xmlns="http://www.w3.org/2000/svg" viewBox="0 0 64 64">
  <rect width="64" height="64" rx="14" fill="#2A1B10"/>
  <path d="M16 28h32c1.1 0 2 .9 2 2 0 8.8-7.2 16-16 16h-4c-8.8 0-16-7.2-16-16 0-1.1.9-2 2-2z" fill="#F0AE0A"/>
  <path d="M46 30h3c3.3 0 6 2.7 6 6s-2.7 6-6 6h-1.5" stroke="#F0AE0A" stroke-width="3" fill="none" stroke-linecap="round"/>
  <path d="M24 24c-2-2-2-4 0-7M32 24c-2-2-2-5 1-8M40 24c-2-2-2-4 0-7" stroke="#F9D874" stroke-width="2.5" fill="none" stroke-linecap="round"/>
</svg>
